<svg aria-hidden="true" style="position:absolute;width:0;height:0;overflow:hidden" xmlns="http://www.w3.org/2000/svg">
    <defs>
        <symbol id="icon-arrow-narrow-right" viewBox="0 0 32 32">
            <path stroke-linejoin="round" stroke-linecap="round" stroke-miterlimit="4" stroke-width="2" d="M5.333 16h21.333"></path>
            <path stroke-linejoin="round" stroke-linecap="round" stroke-miterlimit="4" stroke-width="2" d="M18.666 8l8 8-8 8"></path>
        </symbol>
        <symbol id="cross" viewBox="0 0 28 28">
            <path d="M21 7L7 21" stroke-width="2" stroke-linecap="round"/>
            <path d="M7 7L21 21" stroke-width="2" stroke-linecap="round"/>
        </symbol>
        <symbol id="burger" viewBox="0 0 28 28">
            <path d="M3.5 9.91666H24.5M3.5 18.0833H24.5" stroke-width="2" stroke-linecap="round"/>
        </symbol>
        <symbol id="icon-FB" viewBox="0 0 48 32">
            <path fill="#fafafa" d="M2.5 32V.958h19.271v4.021H7.188v10.062h13.187v4H7.187v12.958H2.499zm22.355 0V.958h11.396c2.194 0 4.014.361 5.458 1.083s2.521 1.701 3.229 2.938c.722 1.222 1.083 2.597 1.083 4.125 0 1.292-.243 2.382-.729 3.271-.472.889-1.104 1.597-1.896 2.125s-1.667.917-2.625 1.167v.292c1.042.056 2.055.389 3.042 1s1.799 1.479 2.438 2.604c.653 1.111.979 2.472.979 4.083 0 1.583-.375 3.007-1.125 4.271-.736 1.25-1.875 2.243-3.417 2.979S39.167 32 36.751 32H24.855zm4.687-4h6.75c2.25 0 3.861-.438 4.833-1.313s1.458-1.965 1.458-3.271c0-.986-.25-1.882-.75-2.688-.486-.819-1.187-1.472-2.104-1.958s-2-.729-3.25-.729h-6.938v9.958zm0-13.604h6.292c1.042 0 1.986-.201 2.833-.604s1.514-.972 2-1.708c.5-.75.75-1.618.75-2.604 0-1.278-.451-2.347-1.354-3.208-.889-.875-2.257-1.312-4.104-1.312h-6.417v9.438z" style="fill:var(--color1, #fafafa)"/>
        </symbol>
        <symbol id="icon-GH" viewBox="0 0 54 32">
            <path fill="#fafafa" d="M14.423 29.923c-2.59 0-4.865-.596-6.827-1.788-1.949-1.192-3.474-2.885-4.577-5.077-1.09-2.205-1.635-4.814-1.635-7.827 0-3.051.551-5.673 1.654-7.865 1.115-2.205 2.641-3.897 4.577-5.077C9.551 1.097 11.756.501 14.23.501c1.538 0 2.974.231 4.308.692a11.238 11.238 0 0 1 3.577 1.942 10.956 10.956 0 0 1 2.596 3c.692 1.141 1.16 2.41 1.404 3.808h-4.423a8.737 8.737 0 0 0-1.077-2.288A6.968 6.968 0 0 0 19 5.924a6.599 6.599 0 0 0-2.135-1.096c-.782-.256-1.654-.385-2.615-.385-1.615 0-3.07.417-4.365 1.25-1.295.821-2.321 2.032-3.077 3.635s-1.135 3.564-1.135 5.885c0 2.321.378 4.282 1.135 5.885s1.795 2.821 3.115 3.654c1.321.82 2.82 1.231 4.5 1.231 1.551 0 2.904-.314 4.058-.942 1.154-.641 2.051-1.538 2.692-2.692s.962-2.519.962-4.096l1.135.212h-8.192v-3.577h11.269v3.269c0 2.41-.513 4.494-1.538 6.25a10.454 10.454 0 0 1-4.231 4.077c-1.795.961-3.846 1.442-6.154 1.442zm14.943-.385V.884h4.327v12.462h14.269V.884h4.327v28.654h-4.327V17.057H33.693v12.481h-4.327z" style="fill:var(--color1, #fafafa)"/>
        </symbol>
        <symbol id="icon-IG" viewBox="0 0 37 32">
            <path fill="#fafafa" d="M6.635.885v28.654H2.308V.885h4.327zm15.962 29.038c-2.59 0-4.865-.596-6.827-1.788-1.949-1.192-3.474-2.885-4.577-5.077-1.09-2.205-1.635-4.814-1.635-7.827 0-3.051.551-5.673 1.654-7.865 1.115-2.205 2.641-3.897 4.577-5.077C17.725 1.097 19.93.501 22.404.501c1.538 0 2.974.231 4.308.692a11.238 11.238 0 0 1 3.577 1.942 10.956 10.956 0 0 1 2.596 3c.692 1.141 1.16 2.41 1.404 3.808h-4.423a8.737 8.737 0 0 0-1.077-2.288 6.968 6.968 0 0 0-1.615-1.731 6.599 6.599 0 0 0-2.135-1.096c-.782-.256-1.654-.385-2.615-.385-1.615 0-3.071.417-4.365 1.25-1.295.821-2.321 2.032-3.077 3.635s-1.135 3.564-1.135 5.885c0 2.321.378 4.282 1.135 5.885s1.795 2.821 3.115 3.654c1.32.82 2.82 1.231 4.5 1.231 1.551 0 2.904-.314 4.058-.942 1.154-.641 2.051-1.538 2.692-2.692s.961-2.519.961-4.096l1.135.212h-8.192v-3.577H34.52v3.269c0 2.41-.513 4.494-1.538 6.25a10.454 10.454 0 0 1-4.231 4.077c-1.795.961-3.846 1.442-6.154 1.442z" style="fill:var(--color1, #fafafa)"/>
        </symbol>
        <symbol id="icon-lloydjeffersongmailcom" viewBox="0 0 329 32">
            <path fill="#fafafa" d="M4.706 2.559v21.912H1.53V2.559h3.176zm5.633 0v21.912H7.163V2.559h3.176zm9.353 22.25c-1.539 0-2.887-.353-4.044-1.059-1.147-.706-2.039-1.696-2.676-2.971-.627-1.275-.941-2.755-.941-4.441 0-1.706.314-3.196.941-4.471.637-1.284 1.529-2.279 2.676-2.985 1.157-.706 2.505-1.059 4.044-1.059 1.549 0 2.897.353 4.044 1.059s2.039 1.701 2.677 2.985c.637 1.274.956 2.765.956 4.471 0 1.686-.319 3.167-.956 4.441s-1.529 2.265-2.677 2.971-2.495 1.059-4.044 1.059zm0-2.691c1.01 0 1.843-.265 2.5-.794s1.142-1.23 1.456-2.103c.324-.882.485-1.843.485-2.882 0-1.059-.162-2.029-.485-2.912-.314-.882-.799-1.588-1.456-2.118s-1.49-.794-2.5-.794c-1 0-1.829.265-2.485.794-.647.529-1.132 1.235-1.456 2.118s-.485 1.853-.485 2.912c0 1.039.162 2 .485 2.882.324.873.809 1.574 1.456 2.103.657.529 1.485.794 2.485.794zm10.795 8.5c-.48.01-.917-.024-1.309-.103-.382-.069-.676-.152-.882-.25l.779-2.603.221.059c.814.206 1.5.191 2.059-.044.569-.226 1.044-.858 1.426-1.897l.397-1.088-6-16.662h3.426l4.147 12.765h.176L39.089 8.03h3.426L35.75 26.648c-.314.863-.711 1.588-1.191 2.177a4.507 4.507 0 0 1-1.735 1.338c-.667.304-1.446.456-2.338.456zm18.721-5.824c-1.333 0-2.52-.338-3.559-1.015-1.039-.686-1.853-1.662-2.441-2.927-.588-1.275-.882-2.794-.882-4.559 0-1.784.299-3.309.897-4.574s1.417-2.23 2.456-2.897c1.039-.667 2.216-1 3.529-1 1.029 0 1.853.172 2.471.515.627.333 1.113.725 1.456 1.176.353.451.623.848.809 1.191h.191V2.557h3.176v21.912h-3.103V21.91h-.265c-.186.343-.461.74-.824 1.191s-.858.848-1.485 1.191c-.618.333-1.426.5-2.426.5zm.691-2.72c.921 0 1.701-.245 2.338-.735s1.118-1.172 1.441-2.044c.333-.873.5-1.882.5-3.029s-.162-2.147-.485-3c-.324-.863-.804-1.529-1.441-2-.637-.48-1.422-.721-2.353-.721-.961 0-1.76.25-2.397.75s-1.118 1.181-1.441 2.044-.485 1.838-.485 2.926c0 1.098.162 2.088.485 2.971.324.872.804 1.564 1.441 2.073.647.51 1.446.765 2.397.765zm9.883-14.045h3.176v17.515c.01 1.098-.186 2.024-.588 2.779s-.99 1.323-1.765 1.706c-.775.392-1.726.588-2.853.588h-.647v-2.75h.515c.765 0 1.314-.201 1.647-.603s.505-.981.515-1.735v-17.5zM61.356 5.5c-.559 0-1.034-.186-1.426-.559s-.588-.819-.588-1.338c0-.529.196-.98.588-1.353s.868-.559 1.426-.559c.549 0 1.02.186 1.412.559.402.373.603.824.603 1.353 0 .52-.201.966-.603 1.338a1.976 1.976 0 0 1-1.412.559zm11.133 19.309c-1.608 0-3-.348-4.177-1.044s-2.083-1.676-2.721-2.941c-.627-1.275-.941-2.76-.941-4.456 0-1.686.309-3.172.927-4.456.627-1.284 1.505-2.284 2.632-3 1.137-.726 2.471-1.088 4-1.088.931 0 1.833.152 2.706.456s1.657.784 2.353 1.441c.696.657 1.245 1.51 1.647 2.559.412 1.049.618 2.314.618 3.794v1.147H66.46v-2.397h11.426l-1.485.794c0-1.01-.157-1.902-.471-2.676s-.784-1.377-1.412-1.809c-.618-.441-1.387-.662-2.309-.662s-1.711.221-2.368.662c-.647.441-1.142 1.024-1.485 1.75s-.515 1.52-.515 2.382v1.632c0 1.127.196 2.083.588 2.868s.936 1.382 1.632 1.794c.706.412 1.525.618 2.456.618.608 0 1.157-.088 1.647-.265.5-.176.931-.441 1.294-.794s.637-.789.824-1.309l3.029.574c-.245.882-.677 1.657-1.294 2.324s-1.397 1.186-2.338 1.559c-.931.363-1.995.544-3.191.544zm16.5-16.78v2.574H79.71V8.029h9.279zm-6.75 16.442V6.118c0-1.02.225-1.868.677-2.544a4.233 4.233 0 0 1 1.794-1.529 5.663 5.663 0 0 1 2.397-.515c.657 0 1.216.054 1.676.162s.799.201 1.015.279l-.765 2.588a8.051 8.051 0 0 0-.574-.162 3.443 3.443 0 0 0-.853-.088c-.774 0-1.333.196-1.676.588-.343.382-.515.941-.515 1.676V24.47h-3.176zM98.24 8.029v2.574h-9.279V8.029h9.279zm-6.75 16.442V6.118c0-1.02.225-1.868.676-2.544a4.233 4.233 0 0 1 1.794-1.529 5.663 5.663 0 0 1 2.397-.515c.657 0 1.216.054 1.676.162s.799.201 1.015.279l-.765 2.588a8.051 8.051 0 0 0-.574-.162 3.443 3.443 0 0 0-.853-.088c-.774 0-1.333.196-1.676.588-.343.382-.515.941-.515 1.676V24.47h-3.176zm14.604.338c-1.608 0-3-.348-4.177-1.044s-2.083-1.676-2.721-2.941c-.627-1.275-.941-2.76-.941-4.456 0-1.686.309-3.172.927-4.456.627-1.284 1.505-2.284 2.632-3 1.137-.726 2.471-1.088 4-1.088.931 0 1.833.152 2.706.456s1.657.784 2.353 1.441c.696.657 1.245 1.51 1.647 2.559.412 1.049.618 2.314.618 3.794v1.147h-13.073v-2.397h11.426l-1.485.794c0-1.01-.157-1.902-.471-2.676s-.784-1.377-1.412-1.809c-.618-.441-1.387-.662-2.309-.662s-1.711.221-2.368.662c-.647.441-1.142 1.024-1.485 1.75s-.515 1.52-.515 2.382v1.632c0 1.127.196 2.083.588 2.868s.936 1.382 1.632 1.794c.706.412 1.525.618 2.456.618.608 0 1.157-.088 1.647-.265.5-.176.931-.441 1.294-.794s.637-.789.824-1.309l3.029.574c-.245.882-.677 1.657-1.294 2.324s-1.397 1.186-2.338 1.559c-.931.363-1.995.544-3.191.544zm8.677-.338V8.03h3.073v2.632h.176a4.036 4.036 0 0 1 1.588-2.088c.765-.52 1.627-.779 2.588-.779.196 0 .426.01.691.029.274.01.495.024.662.044v3.059a4.64 4.64 0 0 0-.691-.118 8.218 8.218 0 0 0-.985-.059c-.755 0-1.431.162-2.029.485a3.593 3.593 0 0 0-1.397 1.309c-.333.549-.5 1.186-.5 1.912v10.015h-3.176zm22.015-12.412-2.897.5c-.186-.549-.534-1.054-1.044-1.515-.5-.461-1.25-.691-2.25-.691-.902 0-1.657.206-2.265.618-.598.402-.897.917-.897 1.544 0 .549.201.995.603 1.338.412.343 1.064.618 1.956.824l2.632.588c1.5.343 2.623.882 3.368 1.618s1.118 1.676 1.118 2.824c0 .99-.284 1.872-.853 2.647-.569.765-1.358 1.368-2.368 1.809-1.01.431-2.176.647-3.5.647-1.843 0-3.343-.397-4.5-1.191s-1.867-1.912-2.132-3.353l3.073-.471c.196.804.593 1.412 1.191 1.824.608.412 1.392.618 2.353.618 1.039 0 1.872-.221 2.5-.662.637-.441.956-.975.956-1.603 0-1.039-.775-1.74-2.324-2.103l-2.779-.618c-1.539-.353-2.677-.907-3.412-1.662-.726-.765-1.088-1.726-1.088-2.882 0-.971.27-1.824.809-2.559.549-.735 1.299-1.304 2.25-1.706.961-.412 2.054-.618 3.279-.618 1.784 0 3.181.387 4.191 1.162 1.019.774 1.696 1.799 2.029 3.074zm8.853 12.75c-1.539 0-2.887-.353-4.044-1.059-1.147-.706-2.039-1.696-2.677-2.971-.627-1.275-.941-2.755-.941-4.441 0-1.706.314-3.196.941-4.471.637-1.284 1.529-2.279 2.677-2.985 1.157-.706 2.505-1.059 4.044-1.059 1.549 0 2.897.353 4.044 1.059s2.039 1.701 2.677 2.985c.637 1.274.956 2.765.956 4.471 0 1.686-.319 3.167-.956 4.441s-1.529 2.265-2.677 2.971-2.495 1.059-4.044 1.059zm0-2.691c1.01 0 1.843-.265 2.5-.794s1.142-1.23 1.456-2.103c.324-.882.485-1.843.485-2.882 0-1.059-.162-2.029-.485-2.912-.314-.882-.799-1.588-1.456-2.118s-1.49-.794-2.5-.794c-1 0-1.828.265-2.485.794-.647.529-1.132 1.235-1.456 2.118s-.485 1.853-.485 2.912c0 1.039.162 2 .485 2.882.324.873.809 1.574 1.456 2.103.657.529 1.485.794 2.485.794zm12.56-7.397v9.75h-3.176V8.03h3.088v2.706h.221a4.586 4.586 0 0 1 1.75-2.118c.794-.529 1.814-.794 3.059-.794 1.118 0 2.093.235 2.927.706.843.461 1.495 1.152 1.956 2.074.471.922.706 2.064.706 3.426v10.441h-3.176V14.412c0-1.186-.314-2.118-.941-2.794-.628-.686-1.48-1.029-2.559-1.029-.735 0-1.397.167-1.985.5-.578.324-1.034.789-1.368 1.397s-.5 1.353-.5 2.235zm26.074 15.691c-2.216 0-4.181-.299-5.897-.897-1.706-.598-3.147-1.48-4.324-2.647-1.167-1.167-2.054-2.593-2.662-4.279s-.912-3.613-.912-5.779c0-2.108.309-4 .927-5.676.618-1.686 1.51-3.123 2.676-4.309 1.176-1.196 2.603-2.108 4.28-2.735 1.686-.627 3.598-.941 5.735-.941 2.039 0 3.843.324 5.411.971 1.57.637 2.882 1.515 3.942 2.632a11.104 11.104 0 0 1 2.411 3.853c.55 1.451.824 2.985.824 4.603 0 1.118-.073 2.216-.22 3.294-.149 1.078-.422 2.054-.824 2.926-.392.873-.96 1.569-1.705 2.088-.736.51-1.692.765-2.869.765a5.74 5.74 0 0 1-1.647-.25 3.585 3.585 0 0 1-1.411-.794 2.355 2.355 0 0 1-.706-1.382h-.118a3.279 3.279 0 0 1-.809 1.147c-.373.343-.848.622-1.426.838-.569.216-1.231.323-1.985.323-1.314 0-2.431-.323-3.353-.971-.921-.657-1.622-1.549-2.103-2.677-.471-1.127-.706-2.412-.706-3.853 0-1.412.28-2.657.838-3.735.568-1.078 1.328-1.917 2.279-2.515.961-.608 2.039-.912 3.235-.912.981 0 1.799.172 2.456.515.667.343 1.113.691 1.338 1.044h.162V9.853h2.617v9.926c0 .569.149 1.049.442 1.441s.721.588 1.278.588c.648 0 1.152-.24 1.515-.721.373-.48.632-1.216.779-2.206.158-.99.235-2.26.235-3.809 0-1.088-.147-2.108-.44-3.059a8.826 8.826 0 0 0-1.28-2.603 7.963 7.963 0 0 0-2.044-2.015 9.407 9.407 0 0 0-2.779-1.309c-1.039-.314-2.181-.471-3.426-.471-1.716 0-3.235.265-4.559.794s-2.441 1.284-3.353 2.265c-.902.98-1.588 2.157-2.059 3.529s-.706 2.912-.706 4.618c0 1.774.235 3.353.706 4.735.48 1.373 1.186 2.529 2.118 3.471.941.941 2.098 1.657 3.47 2.147 1.382.49 2.976.735 4.779.735.804 0 1.588-.073 2.353-.221a17.026 17.026 0 0 0 2.044-.485 37.75 37.75 0 0 0 1.353-.412l.736 2.353c-.433.196-1.011.392-1.736.588-.727.196-1.515.358-2.368.485s-1.691.191-2.515.191zm-1.015-8.883c.931 0 1.681-.186 2.25-.559s.976-.927 1.221-1.662c.255-.735.382-1.657.382-2.765 0-1.088-.137-1.956-.412-2.603-.265-.647-.677-1.113-1.235-1.397s-1.275-.426-2.147-.426c-.804 0-1.49.201-2.059.603a3.805 3.805 0 0 0-1.309 1.588c-.294.667-.441 1.412-.441 2.235 0 .863.118 1.672.353 2.426.245.755.642 1.373 1.191 1.853.549.471 1.284.706 2.206.706zm22.06 9.442c-1.961 0-3.505-.368-4.632-1.103s-1.907-1.608-2.338-2.618l2.735-1.132c.196.314.456.647.779 1 .333.353.779.652 1.338.897s1.28.368 2.161.368c1.207 0 2.206-.294 3-.882.794-.578 1.192-1.51 1.192-2.794v-3.221h-.22c-.177.343-.446.73-.809 1.162-.363.422-.858.789-1.485 1.103s-1.446.471-2.456.471c-1.293 0-2.46-.304-3.499-.912-1.03-.618-1.852-1.52-2.472-2.706-.606-1.196-.911-2.667-.911-4.412s.299-3.24.898-4.485c.608-1.255 1.431-2.216 2.47-2.882s2.221-1 3.544-1c1.02 0 1.843.172 2.47.515.638.333 1.133.725 1.487 1.176.352.451.627.848.823 1.191h.235V8.031h3.102V24.84c0 1.412-.328 2.569-.984 3.471-.648.902-1.528 1.569-2.647 2-1.118.441-2.377.662-3.78.662zm-.03-9.412c1.384 0 2.441-.475 3.177-1.426.745-.961 1.118-2.289 1.118-3.985 0-1.108-.162-2.078-.486-2.912-.324-.843-.804-1.5-1.442-1.971-.636-.48-1.427-.721-2.368-.721-.96 0-1.764.25-2.411.75-.636.49-1.118 1.162-1.442 2.015-.322.843-.484 1.789-.484 2.838 0 1.069.162 2.015.484 2.838.324.814.809 1.446 1.457 1.897.657.451 1.455.676 2.396.676zm9.897 2.912V8.03h3.046v2.706h.22c.343-.912.902-1.623 1.675-2.132.785-.52 1.717-.779 2.795-.779 1.097 0 2.014.26 2.75.779.745.51 1.299 1.221 1.662 2.132h.175a4.605 4.605 0 0 1 1.869-2.118c.853-.529 1.867-.794 3.044-.794 1.489 0 2.711.471 3.661 1.412.951.931 1.427 2.338 1.427 4.221v11.015h-3.206V13.751c0-1.118-.305-1.922-.913-2.412-.608-.5-1.333-.75-2.176-.75-1.039 0-1.848.324-2.426.971-.568.637-.853 1.446-.853 2.426v10.485h-3.206V13.545c0-.892-.275-1.608-.824-2.147-.548-.539-1.269-.809-2.161-.809-.608 0-1.173.162-1.692.485-.508.314-.92.755-1.235 1.324-.303.559-.456 1.206-.456 1.941v10.132h-3.177zm29.545.353c-1.039 0-1.98-.191-2.824-.574a4.713 4.713 0 0 1-1.999-1.706c-.491-.745-.736-1.652-.736-2.721 0-.931.177-1.691.529-2.279.363-.598.849-1.074 1.457-1.426s1.284-.618 2.029-.794a21.63 21.63 0 0 1 2.295-.412c.99-.108 1.788-.201 2.396-.279s1.048-.201 1.323-.368c.284-.176.427-.456.427-.838v-.074c0-.931-.265-1.652-.794-2.162-.52-.51-1.295-.765-2.325-.765-1.067 0-1.916.235-2.543.706-.617.461-1.045.985-1.28 1.574l-3.014-.691c.361-1 .887-1.804 1.574-2.412a6.52 6.52 0 0 1 2.381-1.353 9.346 9.346 0 0 1 2.824-.426c.657 0 1.353.078 2.089.235a6.035 6.035 0 0 1 2.072.838c.657.402 1.192.98 1.604 1.735.41.755.617 1.73.617 2.926V24.47H249.7v-2.25h-.119c-.196.402-.504.804-.926 1.206-.412.402-.941.735-1.589 1-.646.265-1.427.397-2.338.397zm.691-2.559c.892 0 1.653-.171 2.28-.515.629-.353 1.109-.814 1.442-1.382s.499-1.172.499-1.809v-2.132c-.117.108-.337.211-.661.309s-.691.181-1.103.25a70.46 70.46 0 0 1-1.207.191c-.392.049-.719.088-.984.118a8.4 8.4 0 0 0-1.692.412c-.508.176-.92.441-1.235.794-.303.343-.456.799-.456 1.368 0 .794.294 1.392.883 1.794.587.402 1.333.603 2.234.603zm9.884 2.206V8.03h3.176v16.441h-3.176zM256.907 5.5a1.998 1.998 0 0 1-1.427-.559c-.392-.373-.587-.819-.587-1.338 0-.529.196-.98.587-1.353a1.996 1.996 0 0 1 1.427-.559c.55 0 1.02.186 1.412.559.403.373.604.824.604 1.353 0 .52-.201.966-.604 1.338a1.974 1.974 0 0 1-1.412.559zm7.208-2.941v21.912h-3.177V2.559h3.177zm4.837 22.118a2.106 2.106 0 0 1-1.528-.618c-.412-.412-.617-.917-.617-1.515s.205-1.103.617-1.515a2.109 2.109 0 0 1 1.528-.618c.599 0 1.103.206 1.515.618.422.412.632.917.632 1.515s-.211 1.103-.632 1.515a2.06 2.06 0 0 1-1.515.618zm11.737.132c-1.579 0-2.942-.363-4.088-1.088s-2.029-1.726-2.647-3-.926-2.735-.926-4.382c0-1.676.312-3.152.941-4.427.636-1.284 1.525-2.284 2.662-3 1.146-.726 2.49-1.088 4.028-1.088 1.256 0 2.368.23 3.339.691.981.451 1.769 1.093 2.368 1.926.606.833.966 1.804 1.073 2.912h-3.117a3.7 3.7 0 0 0-.632-1.426c-.305-.431-.706-.774-1.207-1.029s-1.094-.382-1.779-.382c-.892 0-1.672.235-2.338.706-.657.461-1.173 1.123-1.545 1.985s-.559 1.882-.559 3.059c0 1.186.183 2.221.544 3.103.363.882.879 1.564 1.545 2.044.676.471 1.461.706 2.353.706.92 0 1.705-.255 2.353-.765.657-.51 1.079-1.206 1.265-2.088h3.117c-.107 1.069-.452 2.02-1.03 2.853s-1.353 1.49-2.323 1.971c-.971.48-2.104.721-3.398.721zm15.309 0c-1.54 0-2.888-.353-4.043-1.059-1.148-.706-2.04-1.696-2.677-2.971-.629-1.275-.941-2.755-.941-4.441 0-1.706.312-3.196.941-4.471.636-1.284 1.528-2.279 2.677-2.985 1.156-.706 2.504-1.059 4.043-1.059 1.549 0 2.897.353 4.045 1.059 1.146.706 2.039 1.701 2.675 2.985.638 1.274.956 2.765.956 4.471 0 1.686-.318 3.167-.956 4.441-.636 1.274-1.528 2.265-2.675 2.971-1.148.706-2.496 1.059-4.045 1.059zm0-2.691c1.011 0 1.843-.265 2.5-.794s1.143-1.23 1.457-2.103c.324-.882.484-1.843.484-2.882 0-1.059-.16-2.029-.484-2.912-.314-.882-.8-1.588-1.457-2.118s-1.489-.794-2.5-.794c-1 0-1.828.265-2.485.794-.648.529-1.133 1.235-1.457 2.118s-.484 1.853-.484 2.912c0 1.039.16 2 .484 2.882.324.873.809 1.574 1.457 2.103.657.529 1.485.794 2.485.794zm9.384 2.353V8.03h3.044v2.706h.22c.343-.912.902-1.623 1.677-2.132.783-.52 1.715-.779 2.793-.779 1.097 0 2.014.26 2.75.779.745.51 1.299 1.221 1.662 2.132h.177a4.606 4.606 0 0 1 1.867-2.118c.853-.529 1.867-.794 3.044-.794 1.491 0 2.711.471 3.661 1.412.952.931 1.427 2.338 1.427 4.221v11.015h-3.206V13.751c0-1.118-.303-1.922-.911-2.412-.608-.5-1.335-.75-2.178-.75-1.039 0-1.847.324-2.426.971-.568.637-.853 1.446-.853 2.426v10.485h-3.206V13.545c0-.892-.275-1.608-.823-2.147-.55-.539-1.271-.809-2.163-.809-.608 0-1.171.162-1.69.485-.51.314-.922.755-1.237 1.324-.303.559-.456 1.206-.456 1.941v10.132h-3.176z" style="fill:var(--color1, #fafafa)"/>
        </symbol>
        <symbol id="icon-YT" viewBox="0 0 56 32">
            <path fill="#fafafa" d="M1.438.958h5.313l8.125 14.125h.333L23.292.958h5.354L17.375 19.812V32h-4.688V19.812L1.437.958zm28.084 4.021V.958h24.042v4.021h-9.667V32H39.23V4.979h-9.709z" style="fill:var(--color1, #fafafa)"/>
        </symbol>
    </defs>
</svg>